<?xml version="1.0" standalone="no"?>
<!DOCTYPE svg PUBLIC "-//W3C//DTD SVG 20010904//EN"
 "http://www.w3.org/TR/2001/REC-SVG-20010904/DTD/svg10.dtd">
<svg version="1.0" xmlns="http://www.w3.org/2000/svg"
 width="512.000000pt" height="512.000000pt" viewBox="0 0 512.000000 512.000000"
 preserveAspectRatio="xMidYMid meet">

<g transform="translate(0.000000,512.000000) scale(0.100000,-0.100000)"
fill="#F0F2F1" stroke="none">
<path d="M2265 5095 l-25 -24 0 -271 0 -271 25 -24 c15 -16 36 -25 55 -25 19
0 40 9 55 25 l25 24 0 271 0 271 -25 24 c-15 16 -36 25 -55 25 -19 0 -40 -9
-55 -25z"/>
<path d="M2503 2617 c-1946 -1945 -2103 -2105 -2103 -2135 0 -44 38 -82 82
-82 30 0 190 157 2135 2103 1946 1945 2103 2105 2103 2135 0 44 -38 82 -82 82
-30 0 -190 -157 -2135 -2103z"/>
<path d="M683 4468 c-27 -13 -47 -60 -40 -90 4 -13 87 -103 185 -200 157 -157
182 -178 211 -178 43 0 81 38 81 82 0 29 -20 53 -183 215 -190 190 -200 197
-254 171z"/>
<path d="M3703 4297 c-163 -162 -183 -186 -183 -215 0 -44 38 -82 81 -82 29 0
54 21 210 176 100 100 180 188 184 202 13 52 -30 102 -88 102 -15 0 -79 -58
-204 -183z"/>
<path d="M2180 4234 c-310 -40 -588 -180 -808 -409 -205 -212 -333 -462 -388
-760 -26 -136 -26 -412 0 -540 55 -278 189 -547 361 -722 80 -82 101 -89 146
-44 41 42 38 71 -18 133 -187 211 -298 443 -340 713 -18 119 -13 326 12 452
84 434 378 795 770 947 142 54 237 71 410 71 131 -1 164 -4 259 -29 234 -60
396 -154 573 -333 121 -122 138 -130 187 -92 20 15 26 29 26 58 0 30 -10 49
-57 104 -178 212 -451 370 -748 432 -78 16 -314 28 -385 19z"/>
<path d="M25 2855 c-16 -15 -25 -36 -25 -55 0 -19 9 -40 25 -55 l24 -25 271 0
271 0 24 25 c33 32 33 78 0 110 l-24 25 -271 0 -271 0 -24 -25z"/>
<path d="M4105 2775 c-21 -20 -25 -34 -25 -80 l0 -55 -55 0 c-67 0 -105 -29
-105 -80 0 -51 38 -80 105 -80 l55 0 0 -55 c0 -67 29 -105 80 -105 51 0 80 38
80 105 l0 55 55 0 c67 0 105 29 105 80 0 51 -38 80 -105 80 l-55 0 0 55 c0 67
-29 105 -80 105 -19 0 -40 -9 -55 -25z"/>
<path d="M3259 2601 c-366 -145 -648 -437 -778 -804 -53 -152 -74 -273 -75
-442 -1 -375 129 -693 393 -956 197 -197 420 -317 701 -376 118 -25 410 -25
530 0 444 93 790 361 981 761 44 94 88 223 104 309 6 32 3 40 -23 67 -17 16
-40 30 -52 30 -11 0 -61 -24 -110 -54 -98 -59 -210 -103 -335 -132 -126 -29
-349 -25 -480 10 -637 167 -973 865 -695 1444 46 97 49 124 15 157 -33 34 -62
31 -176 -14z m-58 -277 c-71 -282 -43 -562 83 -819 258 -528 845 -793 1414
-640 51 14 115 35 143 46 27 12 52 19 56 16 3 -4 -13 -45 -37 -91 -166 -335
-474 -572 -850 -653 -116 -25 -352 -25 -469 0 -238 51 -433 153 -602 314 -214
205 -336 454 -370 758 -41 365 135 775 435 1014 67 53 207 143 213 137 2 -2
-5 -39 -16 -82z"/>
<path d="M4585 1975 c-23 -22 -25 -32 -25 -120 l0 -95 -95 0 c-88 0 -98 -2
-120 -25 -33 -32 -33 -78 0 -110 22 -23 32 -25 120 -25 l95 0 0 -95 c0 -88 2
-98 25 -120 15 -16 36 -25 55 -25 19 0 40 9 55 25 23 22 25 32 25 120 l0 95
95 0 c88 0 98 2 120 25 16 15 25 36 25 55 0 19 -9 40 -25 55 -22 23 -32 25
-120 25 l-95 0 0 95 c0 88 -2 98 -25 120 -15 16 -36 25 -55 25 -19 0 -40 -9
-55 -25z"/>
<path d="M823 1417 c-163 -162 -183 -186 -183 -215 0 -44 38 -82 81 -82 29 0
54 21 210 176 100 100 180 188 184 202 13 52 -30 102 -88 102 -15 0 -79 -58
-204 -183z"/>
</g>
</svg>
